<svg xmlns="http://www.w3.org/2000/svg" viewBox="0 0 480 300">
  <defs>
    <linearGradient id="ext-bg" x1="0%" y1="0%" x2="100%" y2="100%">
      <stop offset="0%" stop-color="#0099b5" stop-opacity="0.08"/>
      <stop offset="100%" stop-color="#6aab25" stop-opacity="0.05"/>
    </linearGradient>
    <linearGradient id="ext-grad" x1="0%" y1="0%" x2="100%" y2="100%">
      <stop offset="0%" stop-color="#0099b5"/>
      <stop offset="100%" stop-color="#6aab25"/>
    </linearGradient>
  </defs>
  <rect width="480" height="300" rx="12" fill="#f8fafc"/>
  <rect x="20" y="20" width="440" height="260" rx="8" fill="url(#ext-bg)"/>
  <!-- Central grid/table -->
  <rect x="165" y="90" width="150" height="120" rx="6" fill="#f8fafc" stroke="#0099b5" stroke-width="2" opacity="0.9"/>
  <!-- Grid lines horizontal -->
  <line x1="165" y1="120" x2="315" y2="120" stroke="#0099b5" stroke-width="1" opacity="0.3"/>
  <line x1="165" y1="150" x2="315" y2="150" stroke="#0099b5" stroke-width="1" opacity="0.3"/>
  <line x1="165" y1="180" x2="315" y2="180" stroke="#0099b5" stroke-width="1" opacity="0.3"/>
  <!-- Grid lines vertical -->
  <line x1="215" y1="90" x2="215" y2="210" stroke="#0099b5" stroke-width="1" opacity="0.3"/>
  <line x1="265" y1="90" x2="265" y2="210" stroke="#0099b5" stroke-width="1" opacity="0.3"/>
  <!-- Grid cell highlights -->
  <rect x="166" y="91" width="49" height="29" rx="2" fill="#0099b5" opacity="0.12"/>
  <rect x="216" y="91" width="49" height="29" rx="2" fill="#0099b5" opacity="0.08"/>
  <rect x="266" y="91" width="48" height="29" rx="2" fill="#0099b5" opacity="0.12"/>
  <!-- Small data dots in cells -->
  <circle cx="190" cy="135" r="3" fill="#0099b5" opacity="0.4"/>
  <circle cx="240" cy="135" r="3" fill="#6aab25" opacity="0.4"/>
  <circle cx="290" cy="135" r="3" fill="#0099b5" opacity="0.4"/>
  <circle cx="190" cy="165" r="3" fill="#6aab25" opacity="0.4"/>
  <circle cx="240" cy="165" r="3" fill="#0099b5" opacity="0.4"/>
  <circle cx="290" cy="165" r="3" fill="#6aab25" opacity="0.4"/>
  <circle cx="190" cy="195" r="3" fill="#0099b5" opacity="0.4"/>
  <circle cx="240" cy="195" r="3" fill="#6aab25" opacity="0.4"/>
  <circle cx="290" cy="195" r="3" fill="#0099b5" opacity="0.4"/>
  <!-- Arrow to top-right: file icon -->
  <path d="M315,105 C340,95 355,80 375,65" fill="none" stroke="#0099b5" stroke-width="2" opacity="0.5" stroke-linecap="round"/>
  <polygon points="375,65 368,62 371,69" fill="#0099b5" opacity="0.6"/>
  <rect x="380" y="42" width="40" height="48" rx="4" fill="#f8fafc" stroke="#0099b5" stroke-width="1.8"/>
  <path d="M406,42 L420,42 L420,56 L406,56" fill="none" stroke="#0099b5" stroke-width="1.5" opacity="0.5"/>
  <line x1="388" y1="58" x2="412" y2="58" stroke="#0099b5" stroke-width="1" opacity="0.3"/>
  <line x1="388" y1="64" x2="408" y2="64" stroke="#0099b5" stroke-width="1" opacity="0.3"/>
  <line x1="388" y1="70" x2="412" y2="70" stroke="#0099b5" stroke-width="1" opacity="0.3"/>
  <line x1="388" y1="76" x2="404" y2="76" stroke="#0099b5" stroke-width="1" opacity="0.3"/>
  <!-- Arrow to bottom-right: database icon -->
  <path d="M315,180 C345,190 360,210 380,225" fill="none" stroke="#6aab25" stroke-width="2" opacity="0.5" stroke-linecap="round"/>
  <polygon points="380,225 374,220 377,227" fill="#6aab25" opacity="0.6"/>
  <ellipse cx="400" cy="232" rx="24" ry="8" fill="#f8fafc" stroke="#6aab25" stroke-width="1.8"/>
  <path d="M376,232 L376,258 C376,262 387,266 400,266 C413,266 424,262 424,258 L424,232" fill="none" stroke="#6aab25" stroke-width="1.8"/>
  <ellipse cx="400" cy="245" rx="24" ry="8" fill="none" stroke="#6aab25" stroke-width="1" opacity="0.4"/>
  <!-- Arrow to left: spreadsheet icon -->
  <path d="M165,150 C140,150 120,148 100,145" fill="none" stroke="#0099b5" stroke-width="2" opacity="0.5" stroke-linecap="round"/>
  <polygon points="100,145 107,142 104,149" fill="#0099b5" opacity="0.6"/>
  <rect x="40" y="120" width="52" height="50" rx="4" fill="#f8fafc" stroke="#0099b5" stroke-width="1.8"/>
  <!-- Spreadsheet grid -->
  <line x1="40" y1="135" x2="92" y2="135" stroke="#0099b5" stroke-width="1" opacity="0.4"/>
  <line x1="40" y1="148" x2="92" y2="148" stroke="#0099b5" stroke-width="1" opacity="0.25"/>
  <line x1="40" y1="157" x2="92" y2="157" stroke="#0099b5" stroke-width="1" opacity="0.25"/>
  <line x1="57" y1="120" x2="57" y2="170" stroke="#0099b5" stroke-width="1" opacity="0.25"/>
  <line x1="75" y1="120" x2="75" y2="170" stroke="#0099b5" stroke-width="1" opacity="0.25"/>
  <rect x="41" y="121" width="16" height="14" fill="#6aab25" opacity="0.15"/>
  <rect x="58" y="121" width="17" height="14" fill="#0099b5" opacity="0.1"/>
  <rect x="76" y="121" width="15" height="14" fill="#6aab25" opacity="0.15"/>
  <!-- Arrow to bottom-left: chart icon -->
  <path d="M180,210 C160,230 140,240 115,250" fill="none" stroke="#6aab25" stroke-width="2" opacity="0.5" stroke-linecap="round"/>
  <polygon points="115,250 122,247 119,254" fill="#6aab25" opacity="0.6"/>
  <rect x="55" y="232" width="52" height="42" rx="4" fill="#f8fafc" stroke="#6aab25" stroke-width="1.8"/>
  <rect x="63" y="258" width="8" height="10" rx="2" fill="#6aab25" opacity="0.4"/>
  <rect x="75" y="250" width="8" height="18" rx="2" fill="#0099b5" opacity="0.4"/>
  <rect x="87" y="242" width="8" height="26" rx="2" fill="#6aab25" opacity="0.4"/>
</svg>