<svg xmlns="http://www.w3.org/2000/svg" viewBox="0 0 480 300">
  <defs>
    <linearGradient id="ut-bg" x1="0%" y1="0%" x2="100%" y2="100%">
      <stop offset="0%" stop-color="#0099b5" stop-opacity="0.08"/>
      <stop offset="100%" stop-color="#6aab25" stop-opacity="0.05"/>
    </linearGradient>
  </defs>
  <rect width="480" height="300" rx="12" fill="#f8fafc"/>
  <rect x="20" y="20" width="440" height="260" rx="8" fill="url(#ut-bg)"/>
  <!-- Test matrix grid - 8 columns x 5 rows -->
  <!-- Row 1 -->
  <rect x="90" y="50" width="34" height="34" rx="5" fill="#6aab25" opacity="0.7"/>
  <rect x="132" y="50" width="34" height="34" rx="5" fill="#6aab25" opacity="0.7"/>
  <rect x="174" y="50" width="34" height="34" rx="5" fill="#6aab25" opacity="0.7"/>
  <rect x="216" y="50" width="34" height="34" rx="5" fill="none" stroke="#0099b5" stroke-width="1.5" opacity="0.3"/>
  <rect x="258" y="50" width="34" height="34" rx="5" fill="#6aab25" opacity="0.7"/>
  <rect x="300" y="50" width="34" height="34" rx="5" fill="#6aab25" opacity="0.5"/>
  <rect x="342" y="50" width="34" height="34" rx="5" fill="none" stroke="#0099b5" stroke-width="1.5" opacity="0.3"/>
  <rect x="384" y="50" width="34" height="34" rx="5" fill="#6aab25" opacity="0.7"/>
  <!-- Row 2 -->
  <rect x="90" y="92" width="34" height="34" rx="5" fill="#6aab25" opacity="0.5"/>
  <rect x="132" y="92" width="34" height="34" rx="5" fill="none" stroke="#0099b5" stroke-width="1.5" opacity="0.3"/>
  <rect x="174" y="92" width="34" height="34" rx="5" fill="#6aab25" opacity="0.7"/>
  <rect x="216" y="92" width="34" height="34" rx="5" fill="#6aab25" opacity="0.7"/>
  <rect x="258" y="92" width="34" height="34" rx="5" fill="#6aab25" opacity="0.5"/>
  <rect x="300" y="92" width="34" height="34" rx="5" fill="#6aab25" opacity="0.7"/>
  <rect x="342" y="92" width="34" height="34" rx="5" fill="#6aab25" opacity="0.7"/>
  <rect x="384" y="92" width="34" height="34" rx="5" fill="none" stroke="#6aab25" stroke-width="1.5" opacity="0.4"/>
  <!-- Row 3 -->
  <rect x="90" y="134" width="34" height="34" rx="5" fill="#6aab25" opacity="0.7"/>
  <rect x="132" y="134" width="34" height="34" rx="5" fill="#6aab25" opacity="0.7"/>
  <rect x="174" y="134" width="34" height="34" rx="5" fill="none" stroke="#6aab25" stroke-width="1.5" opacity="0.4"/>
  <rect x="216" y="134" width="34" height="34" rx="5" fill="#6aab25" opacity="0.5"/>
  <rect x="258" y="134" width="34" height="34" rx="5" fill="#6aab25" opacity="0.7"/>
  <rect x="300" y="134" width="34" height="34" rx="5" fill="#6aab25" opacity="0.7"/>
  <rect x="342" y="134" width="34" height="34" rx="5" fill="#6aab25" opacity="0.7"/>
  <rect x="384" y="134" width="34" height="34" rx="5" fill="#6aab25" opacity="0.5"/>
  <!-- Row 4 -->
  <rect x="90" y="176" width="34" height="34" rx="5" fill="none" stroke="#0099b5" stroke-width="1.5" opacity="0.3"/>
  <rect x="132" y="176" width="34" height="34" rx="5" fill="#6aab25" opacity="0.7"/>
  <rect x="174" y="176" width="34" height="34" rx="5" fill="#6aab25" opacity="0.7"/>
  <rect x="216" y="176" width="34" height="34" rx="5" fill="#6aab25" opacity="0.7"/>
  <rect x="258" y="176" width="34" height="34" rx="5" fill="none" stroke="#6aab25" stroke-width="1.5" opacity="0.4"/>
  <rect x="300" y="176" width="34" height="34" rx="5" fill="#6aab25" opacity="0.5"/>
  <rect x="342" y="176" width="34" height="34" rx="5" fill="#6aab25" opacity="0.7"/>
  <rect x="384" y="176" width="34" height="34" rx="5" fill="#6aab25" opacity="0.7"/>
  <!-- Row 5 -->
  <rect x="90" y="218" width="34" height="34" rx="5" fill="#6aab25" opacity="0.7"/>
  <rect x="132" y="218" width="34" height="34" rx="5" fill="#6aab25" opacity="0.5"/>
  <rect x="174" y="218" width="34" height="34" rx="5" fill="#6aab25" opacity="0.7"/>
  <rect x="216" y="218" width="34" height="34" rx="5" fill="#6aab25" opacity="0.7"/>
  <rect x="258" y="218" width="34" height="34" rx="5" fill="#6aab25" opacity="0.7"/>
  <rect x="300" y="218" width="34" height="34" rx="5" fill="none" stroke="#0099b5" stroke-width="1.5" opacity="0.3"/>
  <rect x="342" y="218" width="34" height="34" rx="5" fill="#6aab25" opacity="0.7"/>
  <rect x="384" y="218" width="34" height="34" rx="5" fill="#6aab25" opacity="0.5"/>
  <!-- Checkmarks in filled cells (select few for detail) -->
  <path d="M102,67 L107,72 L118,61" fill="none" stroke="#f8fafc" stroke-width="2" stroke-linecap="round" stroke-linejoin="round" opacity="0.8"/>
  <path d="M144,67 L149,72 L160,61" fill="none" stroke="#f8fafc" stroke-width="2" stroke-linecap="round" stroke-linejoin="round" opacity="0.8"/>
  <path d="M186,67 L191,72 L202,61" fill="none" stroke="#f8fafc" stroke-width="2" stroke-linecap="round" stroke-linejoin="round" opacity="0.8"/>
  <path d="M270,67 L275,72 L286,61" fill="none" stroke="#f8fafc" stroke-width="2" stroke-linecap="round" stroke-linejoin="round" opacity="0.8"/>
  <path d="M396,67 L401,72 L412,61" fill="none" stroke="#f8fafc" stroke-width="2" stroke-linecap="round" stroke-linejoin="round" opacity="0.8"/>
  <path d="M186,109 L191,114 L202,103" fill="none" stroke="#f8fafc" stroke-width="2" stroke-linecap="round" stroke-linejoin="round" opacity="0.8"/>
  <path d="M228,109 L233,114 L244,103" fill="none" stroke="#f8fafc" stroke-width="2" stroke-linecap="round" stroke-linejoin="round" opacity="0.8"/>
  <path d="M312,109 L317,114 L328,103" fill="none" stroke="#f8fafc" stroke-width="2" stroke-linecap="round" stroke-linejoin="round" opacity="0.8"/>
  <path d="M354,109 L359,114 L370,103" fill="none" stroke="#f8fafc" stroke-width="2" stroke-linecap="round" stroke-linejoin="round" opacity="0.8"/>
  <!-- Pending indicators in outlined cells -->
  <circle cx="233" cy="67" r="4" fill="none" stroke="#0099b5" stroke-width="1.5" opacity="0.4"/>
  <circle cx="359" cy="67" r="4" fill="none" stroke="#0099b5" stroke-width="1.5" opacity="0.4"/>
  <circle cx="149" cy="109" r="4" fill="none" stroke="#0099b5" stroke-width="1.5" opacity="0.4"/>
  <circle cx="191" cy="151" r="4" fill="none" stroke="#6aab25" stroke-width="1.5" opacity="0.5"/>
  <circle cx="107" cy="193" r="4" fill="none" stroke="#0099b5" stroke-width="1.5" opacity="0.4"/>
  <circle cx="275" cy="193" r="4" fill="none" stroke="#6aab25" stroke-width="1.5" opacity="0.5"/>
  <circle cx="317" cy="235" r="4" fill="none" stroke="#0099b5" stroke-width="1.5" opacity="0.4"/>
  <circle cx="401" cy="109" r="4" fill="none" stroke="#6aab25" stroke-width="1.5" opacity="0.5"/>
</svg>