<svg xmlns="http://www.w3.org/2000/svg" viewBox="0 0 480 300" fill="none">
  <rect width="480" height="300" rx="8" fill="#f8fafc"/>

  <!-- Connection lines (drawn first, behind nodes) -->
  <!-- Input to Hidden 1 -->
  <line x1="100" y1="75" x2="195" y2="60" stroke="#6aab25" stroke-width="1" opacity="0.25" stroke-linecap="round"/>
  <line x1="100" y1="75" x2="195" y2="120" stroke="#6aab25" stroke-width="1" opacity="0.2" stroke-linecap="round"/>
  <line x1="100" y1="75" x2="195" y2="180" stroke="#6aab25" stroke-width="1" opacity="0.12" stroke-linecap="round"/>

  <line x1="100" y1="130" x2="195" y2="60" stroke="#6aab25" stroke-width="1" opacity="0.2" stroke-linecap="round"/>
  <line x1="100" y1="130" x2="195" y2="120" stroke="#6aab25" stroke-width="1" opacity="0.3" stroke-linecap="round"/>
  <line x1="100" y1="130" x2="195" y2="180" stroke="#6aab25" stroke-width="1" opacity="0.2" stroke-linecap="round"/>
  <line x1="100" y1="130" x2="195" y2="240" stroke="#6aab25" stroke-width="1" opacity="0.15" stroke-linecap="round"/>

  <line x1="100" y1="185" x2="195" y2="120" stroke="#6aab25" stroke-width="1" opacity="0.2" stroke-linecap="round"/>
  <line x1="100" y1="185" x2="195" y2="180" stroke="#6aab25" stroke-width="1" opacity="0.3" stroke-linecap="round"/>
  <line x1="100" y1="185" x2="195" y2="240" stroke="#6aab25" stroke-width="1" opacity="0.2" stroke-linecap="round"/>

  <line x1="100" y1="240" x2="195" y2="180" stroke="#6aab25" stroke-width="1" opacity="0.2" stroke-linecap="round"/>
  <line x1="100" y1="240" x2="195" y2="240" stroke="#6aab25" stroke-width="1" opacity="0.25" stroke-linecap="round"/>

  <!-- Hidden 1 to Hidden 2 -->
  <line x1="205" y1="60" x2="290" y2="80" stroke="#6aab25" stroke-width="1.2" opacity="0.3" stroke-linecap="round"/>
  <line x1="205" y1="60" x2="290" y2="140" stroke="#6aab25" stroke-width="1.2" opacity="0.2" stroke-linecap="round"/>
  <line x1="205" y1="60" x2="290" y2="200" stroke="#6aab25" stroke-width="1.2" opacity="0.12" stroke-linecap="round"/>

  <line x1="205" y1="120" x2="290" y2="80" stroke="#6aab25" stroke-width="1.2" opacity="0.25" stroke-linecap="round"/>
  <line x1="205" y1="120" x2="290" y2="140" stroke="#6aab25" stroke-width="1.2" opacity="0.35" stroke-linecap="round"/>
  <line x1="205" y1="120" x2="290" y2="200" stroke="#6aab25" stroke-width="1.2" opacity="0.2" stroke-linecap="round"/>

  <line x1="205" y1="180" x2="290" y2="80" stroke="#6aab25" stroke-width="1.2" opacity="0.15" stroke-linecap="round"/>
  <line x1="205" y1="180" x2="290" y2="140" stroke="#6aab25" stroke-width="1.2" opacity="0.3" stroke-linecap="round"/>
  <line x1="205" y1="180" x2="290" y2="200" stroke="#6aab25" stroke-width="1.2" opacity="0.3" stroke-linecap="round"/>
  <line x1="205" y1="180" x2="290" y2="250" stroke="#6aab25" stroke-width="1.2" opacity="0.15" stroke-linecap="round"/>

  <line x1="205" y1="240" x2="290" y2="200" stroke="#6aab25" stroke-width="1.2" opacity="0.25" stroke-linecap="round"/>
  <line x1="205" y1="240" x2="290" y2="250" stroke="#6aab25" stroke-width="1.2" opacity="0.3" stroke-linecap="round"/>

  <!-- Hidden 2 to Output -->
  <line x1="300" y1="80" x2="385" y2="110" stroke="#6aab25" stroke-width="1.2" opacity="0.3" stroke-linecap="round"/>
  <line x1="300" y1="80" x2="385" y2="190" stroke="#6aab25" stroke-width="1.2" opacity="0.15" stroke-linecap="round"/>

  <line x1="300" y1="140" x2="385" y2="110" stroke="#6aab25" stroke-width="1.2" opacity="0.35" stroke-linecap="round"/>
  <line x1="300" y1="140" x2="385" y2="190" stroke="#6aab25" stroke-width="1.2" opacity="0.3" stroke-linecap="round"/>

  <line x1="300" y1="200" x2="385" y2="110" stroke="#6aab25" stroke-width="1.2" opacity="0.2" stroke-linecap="round"/>
  <line x1="300" y1="200" x2="385" y2="190" stroke="#6aab25" stroke-width="1.2" opacity="0.35" stroke-linecap="round"/>

  <line x1="300" y1="250" x2="385" y2="190" stroke="#6aab25" stroke-width="1.2" opacity="0.25" stroke-linecap="round"/>

  <!-- Input layer nodes (4 nodes) -->
  <circle cx="100" cy="75" r="10" fill="#0099b5" opacity="0.6" stroke="#0099b5" stroke-width="1.5" stroke-opacity="0.8"/>
  <circle cx="100" cy="130" r="10" fill="#0099b5" opacity="0.6" stroke="#0099b5" stroke-width="1.5" stroke-opacity="0.8"/>
  <circle cx="100" cy="185" r="10" fill="#0099b5" opacity="0.6" stroke="#0099b5" stroke-width="1.5" stroke-opacity="0.8"/>
  <circle cx="100" cy="240" r="10" fill="#0099b5" opacity="0.6" stroke="#0099b5" stroke-width="1.5" stroke-opacity="0.8"/>

  <!-- Hidden layer 1 nodes (4 nodes) -->
  <circle cx="200" cy="60" r="11" fill="#0099b5" opacity="0.5" stroke="#0099b5" stroke-width="1.5" stroke-opacity="0.7"/>
  <circle cx="200" cy="120" r="11" fill="#0099b5" opacity="0.65" stroke="#0099b5" stroke-width="1.5" stroke-opacity="0.8"/>
  <circle cx="200" cy="180" r="11" fill="#0099b5" opacity="0.65" stroke="#0099b5" stroke-width="1.5" stroke-opacity="0.8"/>
  <circle cx="200" cy="240" r="11" fill="#0099b5" opacity="0.5" stroke="#0099b5" stroke-width="1.5" stroke-opacity="0.7"/>

  <!-- Hidden layer 2 nodes (4 nodes) -->
  <circle cx="295" cy="80" r="11" fill="#0099b5" opacity="0.55" stroke="#0099b5" stroke-width="1.5" stroke-opacity="0.75"/>
  <circle cx="295" cy="140" r="11" fill="#0099b5" opacity="0.7" stroke="#0099b5" stroke-width="1.5" stroke-opacity="0.85"/>
  <circle cx="295" cy="200" r="11" fill="#0099b5" opacity="0.7" stroke="#0099b5" stroke-width="1.5" stroke-opacity="0.85"/>
  <circle cx="295" cy="250" r="11" fill="#0099b5" opacity="0.5" stroke="#0099b5" stroke-width="1.5" stroke-opacity="0.7"/>

  <!-- Output layer nodes (2 nodes) -->
  <circle cx="385" cy="110" r="12" fill="#0099b5" opacity="0.75" stroke="#0099b5" stroke-width="2" stroke-opacity="0.9"/>
  <circle cx="385" cy="190" r="12" fill="#0099b5" opacity="0.75" stroke="#0099b5" stroke-width="2" stroke-opacity="0.9"/>

  <!-- Subtle inner highlights on key nodes -->
  <circle cx="200" cy="120" r="4" fill="#f8fafc" opacity="0.3"/>
  <circle cx="200" cy="180" r="4" fill="#f8fafc" opacity="0.3"/>
  <circle cx="295" cy="140" r="4" fill="#f8fafc" opacity="0.3"/>
  <circle cx="295" cy="200" r="4" fill="#f8fafc" opacity="0.3"/>
  <circle cx="385" cy="110" r="5" fill="#f8fafc" opacity="0.25"/>
  <circle cx="385" cy="190" r="5" fill="#f8fafc" opacity="0.25"/>
</svg>