<svg xmlns="http://www.w3.org/2000/svg" viewBox="0 0 480 300" fill="none">
  <defs>
    <linearGradient id="mcGrad" x1="0" y1="0" x2="1" y2="0">
      <stop offset="0%" stop-color="#0099b5"/>
      <stop offset="100%" stop-color="#6aab25"/>
    </linearGradient>
  </defs>
  <rect width="480" height="300" rx="8" fill="#f8fafc"/>

  <!-- Subtle baseline -->
  <line x1="60" y1="240" x2="420" y2="240" stroke="#0099b5" stroke-width="1" opacity="0.15" stroke-linecap="round"/>

  <!-- Bell curve outline (subtle) -->
  <path d="M80,240 Q120,238 160,230 Q200,210 220,170 Q235,130 240,100 Q245,130 260,170 Q280,210 320,230 Q360,238 400,240" stroke="#0099b5" stroke-width="1.5" opacity="0.12" fill="none" stroke-linecap="round"/>

  <!-- Scattered dots forming bell curve distribution -->
  <!-- Far left sparse area -->
  <circle cx="90" cy="235" r="3" fill="#0099b5" opacity="0.3"/>
  <circle cx="100" cy="237" r="2.5" fill="#0099b5" opacity="0.25"/>
  <circle cx="108" cy="233" r="2" fill="#0099b5" opacity="0.3"/>

  <!-- Left shoulder -->
  <circle cx="125" cy="234" r="3" fill="#0099b5" opacity="0.35"/>
  <circle cx="135" cy="230" r="2.5" fill="#0099b5" opacity="0.4"/>
  <circle cx="140" cy="236" r="3" fill="#0099b5" opacity="0.35"/>
  <circle cx="148" cy="228" r="2" fill="#0099b5" opacity="0.4"/>
  <circle cx="132" cy="225" r="2.5" fill="#0099b5" opacity="0.3"/>

  <!-- Left-center building up -->
  <circle cx="160" cy="232" r="3" fill="#0099b5" opacity="0.45"/>
  <circle cx="165" cy="224" r="2.5" fill="#0099b5" opacity="0.5"/>
  <circle cx="170" cy="234" r="3" fill="#0099b5" opacity="0.45"/>
  <circle cx="175" cy="218" r="2" fill="#0099b5" opacity="0.5"/>
  <circle cx="158" cy="220" r="2.5" fill="#0099b5" opacity="0.4"/>
  <circle cx="168" cy="212" r="3" fill="#0099b5" opacity="0.45"/>
  <circle cx="178" cy="226" r="2" fill="#0099b5" opacity="0.5"/>
  <circle cx="172" cy="206" r="2.5" fill="#0099b5" opacity="0.4"/>

  <!-- Left of center — getting dense -->
  <circle cx="188" cy="230" r="3" fill="#0099b5" opacity="0.55"/>
  <circle cx="192" cy="215" r="2.5" fill="#0099b5" opacity="0.55"/>
  <circle cx="195" cy="200" r="3" fill="#0099b5" opacity="0.6"/>
  <circle cx="200" cy="232" r="2.5" fill="#0099b5" opacity="0.55"/>
  <circle cx="198" cy="185" r="2" fill="#0099b5" opacity="0.55"/>
  <circle cx="205" cy="220" r="3" fill="#0099b5" opacity="0.6"/>
  <circle cx="202" cy="205" r="2.5" fill="#0099b5" opacity="0.6"/>
  <circle cx="190" cy="195" r="2" fill="#0099b5" opacity="0.5"/>
  <circle cx="208" cy="190" r="3" fill="#0099b5" opacity="0.6"/>
  <circle cx="196" cy="175" r="2.5" fill="#0099b5" opacity="0.5"/>

  <!-- Center peak — densest area, transitioning color -->
  <circle cx="215" cy="228" r="3" fill="#0099b5" opacity="0.65"/>
  <circle cx="220" cy="210" r="3" fill="#0099b5" opacity="0.7"/>
  <circle cx="225" cy="195" r="2.5" fill="#0099b5" opacity="0.7"/>
  <circle cx="218" cy="180" r="3" fill="#0099b5" opacity="0.65"/>
  <circle cx="228" cy="168" r="2.5" fill="url(#mcGrad)" opacity="0.7"/>
  <circle cx="222" cy="155" r="3" fill="url(#mcGrad)" opacity="0.7"/>
  <circle cx="232" cy="145" r="2.5" fill="url(#mcGrad)" opacity="0.75"/>
  <circle cx="236" cy="225" r="2" fill="url(#mcGrad)" opacity="0.65"/>
  <circle cx="240" cy="130" r="3" fill="url(#mcGrad)" opacity="0.8"/>
  <circle cx="238" cy="160" r="2.5" fill="url(#mcGrad)" opacity="0.75"/>
  <circle cx="242" cy="115" r="2.5" fill="url(#mcGrad)" opacity="0.75"/>
  <circle cx="235" cy="108" r="3" fill="url(#mcGrad)" opacity="0.7"/>
  <circle cx="244" cy="140" r="2" fill="url(#mcGrad)" opacity="0.75"/>
  <circle cx="240" cy="200" r="3" fill="url(#mcGrad)" opacity="0.7"/>
  <circle cx="230" cy="180" r="2" fill="url(#mcGrad)" opacity="0.7"/>
  <circle cx="248" cy="175" r="2.5" fill="url(#mcGrad)" opacity="0.7"/>
  <circle cx="245" cy="210" r="3" fill="url(#mcGrad)" opacity="0.65"/>
  <circle cx="238" cy="232" r="2.5" fill="url(#mcGrad)" opacity="0.6"/>

  <!-- Right of center — dense, shifting to green -->
  <circle cx="255" cy="148" r="3" fill="#6aab25" opacity="0.7"/>
  <circle cx="260" cy="165" r="2.5" fill="#6aab25" opacity="0.65"/>
  <circle cx="258" cy="185" r="3" fill="#6aab25" opacity="0.6"/>
  <circle cx="265" cy="195" r="2" fill="#6aab25" opacity="0.6"/>
  <circle cx="262" cy="215" r="2.5" fill="#6aab25" opacity="0.55"/>
  <circle cx="270" cy="205" r="3" fill="#6aab25" opacity="0.6"/>
  <circle cx="268" cy="228" r="2" fill="#6aab25" opacity="0.55"/>
  <circle cx="275" cy="220" r="2.5" fill="#6aab25" opacity="0.55"/>
  <circle cx="252" cy="175" r="2" fill="#6aab25" opacity="0.65"/>
  <circle cx="278" cy="232" r="3" fill="#6aab25" opacity="0.5"/>

  <!-- Right shoulder -->
  <circle cx="288" cy="225" r="3" fill="#6aab25" opacity="0.5"/>
  <circle cx="295" cy="230" r="2.5" fill="#6aab25" opacity="0.45"/>
  <circle cx="300" cy="218" r="2" fill="#6aab25" opacity="0.5"/>
  <circle cx="305" cy="233" r="3" fill="#6aab25" opacity="0.45"/>
  <circle cx="310" cy="224" r="2.5" fill="#6aab25" opacity="0.45"/>
  <circle cx="298" cy="210" r="2" fill="#6aab25" opacity="0.45"/>
  <circle cx="315" cy="230" r="2" fill="#6aab25" opacity="0.4"/>
  <circle cx="320" cy="234" r="2.5" fill="#6aab25" opacity="0.4"/>

  <!-- Far right sparse -->
  <circle cx="335" cy="232" r="3" fill="#6aab25" opacity="0.35"/>
  <circle cx="345" cy="236" r="2.5" fill="#6aab25" opacity="0.3"/>
  <circle cx="355" cy="234" r="2" fill="#6aab25" opacity="0.3"/>
  <circle cx="365" cy="237" r="3" fill="#6aab25" opacity="0.25"/>
  <circle cx="380" cy="236" r="2.5" fill="#6aab25" opacity="0.25"/>
  <circle cx="395" cy="238" r="2" fill="#6aab25" opacity="0.2"/>
</svg>